# xmcd
#
# Track frame offsets: 
#        150
#        14799
#        35410
#        50521
#        66114
#        82944
#        102933
#        119321
#        140946
#        152897
#
# Disc length: 2255 seconds
#
# Revision: 0
# Processed by: cddbd v1.5.2PL0 Copyright (c) Steve Scherf et al.
# Submitted via: ExactAudioCopy v1.3
#
DISCID=8a08cd0a
DTITLE=Hunter Hayes - I Want Crazy
DYEAR=2015
DGENRE=Country
TTITLE0=I Want Crazy
TTITLE1=Invisible
TTITLE2=Tattoo
TTITLE3=Light Me Up
TTITLE4=Wanted
TTITLE5=You Think You Know Somebody
TTITLE6=Secret Love
TTITLE7=What You Gonna Do
TTITLE8=Everybody's Got Somebody But Me
TTITLE9=Somebody's Heartbreak
EXTD=
EXTT0=
EXTT1=
EXTT2=
EXTT3=
EXTT4=
EXTT5=
EXTT6=
EXTT7=
EXTT8=
EXTT9=
PLAYORDER=
